{"title":"16.Blocks.2006.HDRip.Xvid.AC3-SiC","uid":6600884,"size":1401914356,"categoryP":"video","categoryS":"movies","magnet":"?xt=urn:btih:141c9b928e88185ab69dd3a19f5943f1a1005d70&amp;dn=16.Blocks.2006.HDRip.Xvid.AC3-SiC&amp;tr=udp%3A%2F%2Ftracker.openbittorrent.com%3A80&amp;tr=udp%3A%2F%2Fopen.demonii.com%3A1337&amp;tr=udp%3A%2F%2Ftracker.coppersurfer.tk%3A6969&amp;tr=udp%3A%2F%2Fexodus.desync.com%3A6969","seeders":0,"leechers":1,"uploader":"sceneline","files":5,"time":1313202412,"description":"- &lt;a href=&quot;\nhttp://www.Speed.Cd&quot; rel=&quot;nofollow&quot; target=&quot;_NEW&quot;&gt;\nhttp://www.Speed.Cd&lt;/a&gt; \n       &lt;a href=&quot;\nhttp://www.Speed.Cd&quot; rel=&quot;nofollow&quot; target=&quot;_NEW&quot;&gt;\nhttp://www.Speed.Cd&lt;/a&gt;      fast  and The Hottest Private Tracker on the net\n\n(((--Registration will be open on june every weekend--)))\n\nPlease Seed back to make the speed Faster!!!\n\n------------------nfo--------------------------\n-\n\n\n\n\n\n\n\n\n\n\n\n\n\n\n\n\n\n\n\n\n\n\n\n\n\n\n\n\n\n\n\n\n\n\n\n\n\n\n\n\n          \n          \n              \n              \n                    \n                    \n                    \n                    \n\n16.Blocks.2006.HDRip.Xvid.AC3-SiC\n\nPoster:\n[img]http://leetleech.org/images/55995306630679167248.jpg[/img]\n\nIMDB Link:\nhttp://www.imdb.com/title/tt0450232/\n\nDescription:\nAn aging cop is assigned the ordinary task of escorting a fast-talking witness \nfrom police custody to a courthouse. There are however forces at work trying \nto stop prevent them from making it. \n\nMediaInfo:\nGeneral\nComplete name                    : 16.Blocks.2006.HDRip.Xvid.AC3-SiC.avi\nFormat                           : AVI\nFormat/Info                      : Audio Video Interleave\nFile size                        : 1.30 GiB\nDuration                         : 1h 41mn\nOverall bit rate                 : 1 825 Kbps\n\nVideo\nID                               : 0\nFormat                           : MPEG-4 Visual\nFormat profile                   : Advanced Simple@L5\nFormat settings, BVOP            : Yes\nFormat settings, QPel            : No\nFormat settings, GMC             : No warppoints\nFormat settings, Matrix          : Default (H.263)\nMuxing mode                      : Packed bitstream\nCodec ID                         : XVID\nCodec ID/Hint                    : XviD\nDuration                         : 1h 41mn\nBit rate                         : 1 433 Kbps\nWidth                            : 720 pixels\nHeight                           : 304 pixels\nDisplay aspect ratio             : 2.35:1\nFrame rate                       : 23.976 fps\nResolution                       : 8 bits\nColorimetry                      : 4:2:0\nScan type                        : Progressive\nBits/(Pixel*Frame)               : 0.273\nStream size                      : 1.02 GiB (79%)\nWriting library                  : XviD 64\n\nAudio\nID                               : 1\nFormat                           : AC-3\nFormat/Info                      : Audio Coding 3\nFormat_Settings_ModeExtension    : CM (complete main)\nCodec ID                         : 2000\nDuration                         : 1h 41mn\nBit rate mode                    : Constant\nBit rate                         : 384 Kbps\nChannel(s)                       : 6 channels\nChannel positions                : Front: L C R, Side: L R, LFE\nSampling rate                    : 48.0 KHz\nStream size                      : 279 MiB (21%)\nAlignment                        : Aligned on interleaves\nInterleave, duration             : 64 ms (1.53 video frames)\nInterleave, preload duration     : 192 ms\nTitle                            : 6ch English\n\nScreenshots:\n[img]http://leetleech.org/images/99426215529607726499.png[/img]\n[img]http://leetleech.org/images/33902487420318006340.png[/img]\n[img]http://leetleech.org/images/95269530145824483959.png[/img]\n[img]http://leetleech.org/images/24144107580409990380.png[/img]\n[img]http://leetleech.org/images/61591109689777670903.png[/img]\n\nNote :   N/A \n\nSource : BluRay-ESiR Thanks!!!\n\nEncoder: Bezauk\n\nEnjoy!\n\nRespects to CaptainHomey, Cyanide, CM8, Rx, THC, ELEKTRI4KA, \nKillerhz, PA, YeFsTe, BoxSlots, MrRep and everyone in the struggle...","torrent":{"xt":"urn:btih:141c9b928e88185ab69dd3a19f5943f1a1005d70","amp;dn":"16.Blocks.2006.HDRip.Xvid.AC3-SiC","amp;tr":["udp%3A%2F%2Ftracker.openbittorrent.com%3A80","udp%3A%2F%2Fopen.demonii.com%3A1337","udp%3A%2F%2Ftracker.coppersurfer.tk%3A6969","udp%3A%2F%2Fexodus.desync.com%3A6969"],"infoHash":"141c9b928e88185ab69dd3a19f5943f1a1005d70","infoHashBuffer":{"type":"Buffer","data":[20,28,155,146,142,136,24,90,182,157,211,161,159,89,67,241,161,0,93,112]},"announce":[],"urlList":[]}}